<mxfile host="65bd71144e">
    <diagram id="DqZxYNc-7thmENFFO3xt" name="Блок - схема">
        <mxGraphModel dx="974" dy="490" grid="1" gridSize="10" guides="1" tooltips="1" connect="1" arrows="1" fold="1" page="1" pageScale="1" pageWidth="827" pageHeight="1169" math="0" shadow="0">
            <root>
                <mxCell id="0"/>
                <mxCell id="1" parent="0"/>
                <mxCell id="4" value="" style="edgeStyle=none;html=1;" parent="1" source="2" target="3" edge="1">
                    <mxGeometry relative="1" as="geometry"/>
                </mxCell>
                <mxCell id="2" value="&lt;font color=&quot;#33ffff&quot;&gt;START&lt;/font&gt;" style="rounded=1;whiteSpace=wrap;html=1;" parent="1" vertex="1">
                    <mxGeometry x="320" y="20" width="100" height="40" as="geometry"/>
                </mxCell>
                <mxCell id="6" value="" style="edgeStyle=none;html=1;fontSize=12;fontColor=#FFFFFF;" edge="1" parent="1" source="3" target="5">
                    <mxGeometry relative="1" as="geometry"/>
                </mxCell>
                <mxCell id="3" value="&lt;font style=&quot;font-size: 12px&quot; color=&quot;#33ffff&quot;&gt;array1 [5]&lt;br&gt;array2 [array1.Length]&lt;span&gt;&amp;nbsp;&lt;/span&gt;&lt;br&gt;count&lt;/font&gt;" style="shape=parallelogram;perimeter=parallelogramPerimeter;whiteSpace=wrap;html=1;fixedSize=1;" parent="1" vertex="1">
                    <mxGeometry x="280" y="90" width="180" height="60" as="geometry"/>
                </mxCell>
                <mxCell id="8" value="" style="edgeStyle=none;html=1;fontSize=12;fontColor=#FFFFFF;" edge="1" parent="1" source="5" target="7">
                    <mxGeometry relative="1" as="geometry"/>
                </mxCell>
                <mxCell id="17" value="" style="edgeStyle=none;html=1;fontSize=12;fontColor=#33FFFF;" edge="1" parent="1" source="5" target="15">
                    <mxGeometry relative="1" as="geometry"/>
                </mxCell>
                <mxCell id="5" value="&lt;div style=&quot;font-family: &amp;#34;consolas&amp;#34; , &amp;#34;courier new&amp;#34; , monospace ; line-height: 19px&quot;&gt;&lt;font style=&quot;font-size: 12px&quot; color=&quot;#33ffff&quot;&gt;for (int i = 0; i &amp;lt; array1.Length; i++)&lt;/font&gt;&lt;/div&gt;" style="shape=hexagon;perimeter=hexagonPerimeter2;whiteSpace=wrap;html=1;fixedSize=1;" vertex="1" parent="1">
                    <mxGeometry x="215" y="190" width="310" height="40" as="geometry"/>
                </mxCell>
                <mxCell id="10" style="edgeStyle=none;html=1;entryX=1;entryY=0.5;entryDx=0;entryDy=0;fontSize=12;fontColor=#FFFFFF;" edge="1" parent="1" source="7" target="9">
                    <mxGeometry relative="1" as="geometry">
                        <Array as="points">
                            <mxPoint x="370" y="440"/>
                        </Array>
                    </mxGeometry>
                </mxCell>
                <mxCell id="13" style="edgeStyle=none;html=1;entryX=0;entryY=0.75;entryDx=0;entryDy=0;fontSize=12;fontColor=#FFFFFF;exitX=0;exitY=0.5;exitDx=0;exitDy=0;" edge="1" parent="1" source="7" target="5">
                    <mxGeometry relative="1" as="geometry">
                        <Array as="points">
                            <mxPoint x="140" y="325"/>
                            <mxPoint x="140" y="219"/>
                        </Array>
                    </mxGeometry>
                </mxCell>
                <mxCell id="7" value="&lt;div style=&quot;font-family: &amp;#34;consolas&amp;#34; , &amp;#34;courier new&amp;#34; , monospace ; line-height: 19px&quot;&gt;&lt;font color=&quot;#33ffff&quot;&gt;if(array1[i].Length &amp;lt;= 3)&lt;/font&gt;&lt;/div&gt;" style="rhombus;whiteSpace=wrap;html=1;labelBackgroundColor=none;fontSize=12;fontColor=#FFFFFF;" vertex="1" parent="1">
                    <mxGeometry x="270" y="270" width="200" height="110" as="geometry"/>
                </mxCell>
                <mxCell id="12" style="edgeStyle=none;html=1;entryX=0;entryY=0.25;entryDx=0;entryDy=0;fontSize=12;fontColor=#FFFFFF;exitX=0.181;exitY=-0.003;exitDx=0;exitDy=0;exitPerimeter=0;" edge="1" parent="1" source="9" target="5">
                    <mxGeometry relative="1" as="geometry">
                        <mxPoint x="90" y="400" as="sourcePoint"/>
                        <Array as="points">
                            <mxPoint x="91" y="325"/>
                            <mxPoint x="91" y="201"/>
                        </Array>
                    </mxGeometry>
                </mxCell>
                <mxCell id="9" value="&lt;font color=&quot;#33ffff&quot;&gt;&lt;font style=&quot;font-size: 12px&quot;&gt;&lt;span style=&quot;font-family: &amp;#34;consolas&amp;#34; , &amp;#34;courier new&amp;#34; , monospace&quot;&gt;array2&lt;/span&gt;&lt;span style=&quot;font-family: &amp;#34;consolas&amp;#34; , &amp;#34;courier new&amp;#34; , monospace&quot;&gt;[&lt;/span&gt;&lt;span style=&quot;font-family: &amp;#34;consolas&amp;#34; , &amp;#34;courier new&amp;#34; , monospace&quot;&gt;count&lt;/span&gt;&lt;span style=&quot;font-family: &amp;#34;consolas&amp;#34; , &amp;#34;courier new&amp;#34; , monospace&quot;&gt;] &lt;/span&gt;&lt;span style=&quot;font-family: &amp;#34;consolas&amp;#34; , &amp;#34;courier new&amp;#34; , monospace&quot;&gt;=&lt;/span&gt;&lt;span style=&quot;font-family: &amp;#34;consolas&amp;#34; , &amp;#34;courier new&amp;#34; , monospace&quot;&gt; &lt;/span&gt;&lt;span style=&quot;font-family: &amp;#34;consolas&amp;#34; , &amp;#34;courier new&amp;#34; , monospace&quot;&gt;array1&lt;/span&gt;&lt;span style=&quot;font-family: &amp;#34;consolas&amp;#34; , &amp;#34;courier new&amp;#34; , monospace&quot;&gt;[&lt;/span&gt;&lt;span style=&quot;font-family: &amp;#34;consolas&amp;#34; , &amp;#34;courier new&amp;#34; , monospace&quot;&gt;i&lt;/span&gt;&lt;font face=&quot;Consolas, Courier New, monospace&quot; style=&quot;font-size: 12px&quot;&gt;]&lt;br&gt;&lt;/font&gt;&lt;/font&gt;count++&lt;/font&gt;" style="rounded=0;whiteSpace=wrap;html=1;labelBackgroundColor=none;fontSize=12;fontColor=#FFFFFF;" vertex="1" parent="1">
                    <mxGeometry x="60" y="410" width="170" height="60" as="geometry"/>
                </mxCell>
                <mxCell id="11" value="&lt;font color=&quot;#00ffff&quot;&gt;Yes&lt;/font&gt;" style="text;html=1;align=center;verticalAlign=middle;resizable=0;points=[];autosize=1;strokeColor=none;fillColor=none;fontSize=12;fontColor=#FFFFFF;" vertex="1" parent="1">
                    <mxGeometry x="335" y="420" width="30" height="20" as="geometry"/>
                </mxCell>
                <mxCell id="14" value="&lt;font color=&quot;#00ffff&quot;&gt;No&lt;/font&gt;" style="text;html=1;align=center;verticalAlign=middle;resizable=0;points=[];autosize=1;strokeColor=none;fillColor=none;fontSize=12;fontColor=#FFFFFF;" vertex="1" parent="1">
                    <mxGeometry x="235" y="300" width="30" height="20" as="geometry"/>
                </mxCell>
                <mxCell id="15" value="&lt;div style=&quot;font-family: &amp;#34;consolas&amp;#34; , &amp;#34;courier new&amp;#34; , monospace ; line-height: 19px&quot;&gt;&lt;font color=&quot;#33ffff&quot; style=&quot;font-size: 12px&quot;&gt;PrintArray(array2)&lt;/font&gt;&lt;/div&gt;" style="rounded=1;whiteSpace=wrap;html=1;labelBackgroundColor=none;fontSize=12;fontColor=#00FFFF;" vertex="1" parent="1">
                    <mxGeometry x="570" y="185" width="130" height="50" as="geometry"/>
                </mxCell>
            </root>
        </mxGraphModel>
    </diagram>
</mxfile>